<mxfile host="app.diagrams.net" agent="Mozilla/5.0 (Windows NT 10.0; Win64; x64; rv:138.0) Gecko/20100101 Firefox/138.0" version="27.0.6">
  <diagram name="Seite-1" id="C0ghvE-4qZL3EzDajxP_">
    <mxGraphModel dx="1875" dy="507" grid="1" gridSize="10" guides="1" tooltips="1" connect="1" arrows="1" fold="1" page="1" pageScale="1" pageWidth="827" pageHeight="1169" math="0" shadow="0">
      <root>
        <mxCell id="0" />
        <mxCell id="1" parent="0" />
        <mxCell id="duxP4CULR9FMRPUdZlci-1" value="" style="rounded=1;whiteSpace=wrap;html=1;arcSize=4;fillColor=#f5f5f5;fontColor=#333333;strokeColor=#666666;" parent="1" vertex="1">
          <mxGeometry x="-100" y="370" width="820" height="350" as="geometry" />
        </mxCell>
        <mxCell id="duxP4CULR9FMRPUdZlci-2" value="The Internet" style="image;aspect=fixed;perimeter=ellipsePerimeter;html=1;align=center;shadow=0;dashed=0;spacingTop=3;image=img/lib/active_directory/internet_cloud.svg;fontFamily=Lucida Console;" parent="1" vertex="1">
          <mxGeometry x="222.7" y="110" width="174.6" height="110" as="geometry" />
        </mxCell>
        <mxCell id="duxP4CULR9FMRPUdZlci-22" style="rounded=0;orthogonalLoop=1;jettySize=auto;html=1;exitX=1;exitY=0.5;exitDx=0;exitDy=0;entryX=0;entryY=0.5;entryDx=0;entryDy=0;endArrow=none;startFill=0;" parent="1" source="duxP4CULR9FMRPUdZlci-3" target="duxP4CULR9FMRPUdZlci-5" edge="1">
          <mxGeometry relative="1" as="geometry" />
        </mxCell>
        <mxCell id="duxP4CULR9FMRPUdZlci-3" value="vHub region-eu-1 " style="rounded=1;whiteSpace=wrap;html=1;fontFamily=Lucida Console;fillColor=#cce5ff;strokeColor=#36393d;" parent="1" vertex="1">
          <mxGeometry x="146" y="505" width="130" height="60" as="geometry" />
        </mxCell>
        <mxCell id="duxP4CULR9FMRPUdZlci-33" style="rounded=0;orthogonalLoop=1;jettySize=auto;html=1;exitX=0.5;exitY=0;exitDx=0;exitDy=0;entryX=0.5;entryY=1;entryDx=0;entryDy=0;shape=link;strokeColor=#004C99;" parent="1" source="duxP4CULR9FMRPUdZlci-4" target="duxP4CULR9FMRPUdZlci-3" edge="1">
          <mxGeometry relative="1" as="geometry" />
        </mxCell>
        <mxCell id="duxP4CULR9FMRPUdZlci-4" value="" style="rounded=1;whiteSpace=wrap;html=1;arcSize=4;" parent="1" vertex="1">
          <mxGeometry x="-87" y="825" width="220" height="180" as="geometry" />
        </mxCell>
        <mxCell id="duxP4CULR9FMRPUdZlci-5" value="&lt;font face=&quot;Lucida Console&quot;&gt;vHub region-eu-2&lt;/font&gt;" style="rounded=1;whiteSpace=wrap;html=1;fillColor=#cce5ff;strokeColor=#36393d;" parent="1" vertex="1">
          <mxGeometry x="345" y="507" width="130" height="60" as="geometry" />
        </mxCell>
        <mxCell id="duxP4CULR9FMRPUdZlci-20" style="rounded=0;orthogonalLoop=1;jettySize=auto;html=1;exitX=1;exitY=1;exitDx=0;exitDy=0;entryX=0;entryY=0.25;entryDx=0;entryDy=0;endArrow=none;startFill=0;strokeWidth=3;fillColor=#dae8fc;strokeColor=#6c8ebf;" parent="1" source="duxP4CULR9FMRPUdZlci-7" target="duxP4CULR9FMRPUdZlci-3" edge="1">
          <mxGeometry relative="1" as="geometry" />
        </mxCell>
        <mxCell id="duxP4CULR9FMRPUdZlci-7" value="" style="rounded=1;whiteSpace=wrap;html=1;arcSize=4;fillColor=#f9f7ed;strokeColor=#36393d;" parent="1" vertex="1">
          <mxGeometry x="-90" y="390" width="200" height="110" as="geometry" />
        </mxCell>
        <mxCell id="duxP4CULR9FMRPUdZlci-9" value="" style="image;aspect=fixed;html=1;points=[];align=center;fontSize=12;image=img/lib/azure2/networking/Virtual_Networks.svg;" parent="1" vertex="1">
          <mxGeometry x="-77" y="400" width="16.75" height="10" as="geometry" />
        </mxCell>
        <mxCell id="duxP4CULR9FMRPUdZlci-10" value="vNet-A region-eu-1" style="text;html=1;align=center;verticalAlign=middle;whiteSpace=wrap;rounded=0;fontFamily=Lucida Console;" parent="1" vertex="1">
          <mxGeometry x="-62" y="395" width="140" height="30" as="geometry" />
        </mxCell>
        <mxCell id="duxP4CULR9FMRPUdZlci-21" style="rounded=0;orthogonalLoop=1;jettySize=auto;html=1;exitX=1;exitY=0;exitDx=0;exitDy=0;entryX=0;entryY=1;entryDx=0;entryDy=0;endArrow=none;startFill=0;strokeWidth=3;fillColor=#dae8fc;strokeColor=#6c8ebf;" parent="1" source="duxP4CULR9FMRPUdZlci-12" target="duxP4CULR9FMRPUdZlci-3" edge="1">
          <mxGeometry relative="1" as="geometry" />
        </mxCell>
        <mxCell id="duxP4CULR9FMRPUdZlci-12" value="" style="rounded=1;whiteSpace=wrap;html=1;arcSize=4;fillColor=#f9f7ed;strokeColor=#36393d;" parent="1" vertex="1">
          <mxGeometry x="-90" y="585" width="200" height="110" as="geometry" />
        </mxCell>
        <mxCell id="duxP4CULR9FMRPUdZlci-13" value="" style="image;aspect=fixed;html=1;points=[];align=center;fontSize=12;image=img/lib/azure2/networking/Virtual_Networks.svg;" parent="1" vertex="1">
          <mxGeometry x="-77" y="595" width="16.75" height="10" as="geometry" />
        </mxCell>
        <mxCell id="duxP4CULR9FMRPUdZlci-14" value="vNet-B region-eu-1" style="text;html=1;align=center;verticalAlign=middle;whiteSpace=wrap;rounded=0;fontFamily=Lucida Console;" parent="1" vertex="1">
          <mxGeometry x="-55" y="591" width="140" height="30" as="geometry" />
        </mxCell>
        <mxCell id="duxP4CULR9FMRPUdZlci-15" value="" style="rounded=1;whiteSpace=wrap;html=1;arcSize=4;fillColor=#f9f7ed;strokeColor=#36393d;" parent="1" vertex="1">
          <mxGeometry x="510" y="390" width="200" height="110" as="geometry" />
        </mxCell>
        <mxCell id="duxP4CULR9FMRPUdZlci-16" value="" style="image;aspect=fixed;html=1;points=[];align=center;fontSize=12;image=img/lib/azure2/networking/Virtual_Networks.svg;" parent="1" vertex="1">
          <mxGeometry x="523" y="400" width="16.75" height="10" as="geometry" />
        </mxCell>
        <mxCell id="duxP4CULR9FMRPUdZlci-30" style="rounded=0;orthogonalLoop=1;jettySize=auto;html=1;exitX=0.25;exitY=1;exitDx=0;exitDy=0;entryX=0.093;entryY=0;entryDx=0;entryDy=0;entryPerimeter=0;endArrow=none;startFill=0;strokeWidth=3;fillColor=#fff2cc;strokeColor=#CC0066;" parent="1" edge="1">
          <mxGeometry relative="1" as="geometry">
            <mxPoint x="-42" y="500" as="sourcePoint" />
            <mxPoint x="-43.98000000000002" y="591" as="targetPoint" />
          </mxGeometry>
        </mxCell>
        <mxCell id="duxP4CULR9FMRPUdZlci-17" value="vNet-C region-eu-2" style="text;html=1;align=center;verticalAlign=middle;whiteSpace=wrap;rounded=0;fontFamily=Lucida Console;" parent="1" vertex="1">
          <mxGeometry x="545" y="390" width="140" height="30" as="geometry" />
        </mxCell>
        <mxCell id="duxP4CULR9FMRPUdZlci-18" value="" style="image;aspect=fixed;html=1;points=[];align=center;fontSize=12;image=img/lib/azure2/networking/Virtual_WAN_Hub.svg;" parent="1" vertex="1">
          <mxGeometry x="151" y="505" width="24.38" height="24" as="geometry" />
        </mxCell>
        <mxCell id="duxP4CULR9FMRPUdZlci-19" value="" style="image;aspect=fixed;html=1;points=[];align=center;fontSize=12;image=img/lib/azure2/networking/Virtual_WAN_Hub.svg;" parent="1" vertex="1">
          <mxGeometry x="349" y="507" width="24.38" height="24" as="geometry" />
        </mxCell>
        <mxCell id="duxP4CULR9FMRPUdZlci-23" style="rounded=0;orthogonalLoop=1;jettySize=auto;html=1;exitX=0;exitY=1;exitDx=0;exitDy=0;entryX=0.977;entryY=0.117;entryDx=0;entryDy=0;entryPerimeter=0;strokeWidth=3;fillColor=#dae8fc;strokeColor=#6c8ebf;endArrow=none;startFill=0;" parent="1" source="duxP4CULR9FMRPUdZlci-15" target="duxP4CULR9FMRPUdZlci-5" edge="1">
          <mxGeometry relative="1" as="geometry" />
        </mxCell>
        <mxCell id="duxP4CULR9FMRPUdZlci-28" style="rounded=0;orthogonalLoop=1;jettySize=auto;html=1;exitX=0;exitY=0;exitDx=0;exitDy=0;entryX=1;entryY=1;entryDx=0;entryDy=0;endArrow=none;startFill=0;strokeWidth=3;fillColor=#dae8fc;strokeColor=#6c8ebf;" parent="1" source="duxP4CULR9FMRPUdZlci-24" target="duxP4CULR9FMRPUdZlci-5" edge="1">
          <mxGeometry relative="1" as="geometry" />
        </mxCell>
        <mxCell id="duxP4CULR9FMRPUdZlci-24" value="" style="rounded=1;whiteSpace=wrap;html=1;arcSize=4;fillColor=#f9f7ed;strokeColor=#36393d;" parent="1" vertex="1">
          <mxGeometry x="508.38" y="585" width="200" height="110" as="geometry" />
        </mxCell>
        <mxCell id="duxP4CULR9FMRPUdZlci-25" value="" style="image;aspect=fixed;html=1;points=[];align=center;fontSize=12;image=img/lib/azure2/networking/Virtual_Networks.svg;" parent="1" vertex="1">
          <mxGeometry x="521.38" y="595" width="16.75" height="10" as="geometry" />
        </mxCell>
        <mxCell id="duxP4CULR9FMRPUdZlci-26" value="vNet-D region-eu-2" style="text;html=1;align=center;verticalAlign=middle;whiteSpace=wrap;rounded=0;fontFamily=Lucida Console;" parent="1" vertex="1">
          <mxGeometry x="543.38" y="585" width="140" height="30" as="geometry" />
        </mxCell>
        <mxCell id="duxP4CULR9FMRPUdZlci-31" value="" style="image;sketch=0;aspect=fixed;html=1;points=[];align=center;fontSize=12;image=img/lib/mscae/Virtual_WANs.svg;" parent="1" vertex="1">
          <mxGeometry x="-123" y="347" width="23" height="23" as="geometry" />
        </mxCell>
        <mxCell id="duxP4CULR9FMRPUdZlci-32" value="" style="verticalLabelPosition=bottom;html=1;verticalAlign=top;align=center;strokeColor=none;fillColor=#00BEF2;shape=mxgraph.azure.express_route;pointerEvents=1;" parent="1" vertex="1">
          <mxGeometry x="85" y="745" width="33.33" height="20" as="geometry" />
        </mxCell>
        <mxCell id="duxP4CULR9FMRPUdZlci-34" value="&lt;font face=&quot;Lucida Console&quot;&gt;virtual-wan&lt;/font&gt;" style="text;html=1;align=center;verticalAlign=middle;whiteSpace=wrap;rounded=0;" parent="1" vertex="1">
          <mxGeometry x="-100" y="343.5" width="100" height="30" as="geometry" />
        </mxCell>
        <mxCell id="duxP4CULR9FMRPUdZlci-35" value="" style="endArrow=none;dashed=1;html=1;rounded=0;" parent="1" edge="1">
          <mxGeometry width="50" height="50" relative="1" as="geometry">
            <mxPoint x="300" y="760" as="sourcePoint" />
            <mxPoint x="300" y="340" as="targetPoint" />
          </mxGeometry>
        </mxCell>
        <mxCell id="duxP4CULR9FMRPUdZlci-36" value="Region eu-1" style="text;html=1;align=center;verticalAlign=middle;whiteSpace=wrap;rounded=0;fontFamily=Lucida Console;" parent="1" vertex="1">
          <mxGeometry x="187.38" y="390" width="90" height="30" as="geometry" />
        </mxCell>
        <mxCell id="duxP4CULR9FMRPUdZlci-37" value="Region eu-2" style="text;html=1;align=center;verticalAlign=middle;whiteSpace=wrap;rounded=0;fontFamily=Lucida Console;" parent="1" vertex="1">
          <mxGeometry x="317.38" y="390" width="90" height="30" as="geometry" />
        </mxCell>
        <mxCell id="duxP4CULR9FMRPUdZlci-38" value="&lt;div&gt;on-premises&lt;/div&gt;&lt;div&gt;Datacenter&lt;/div&gt;" style="text;html=1;align=center;verticalAlign=middle;whiteSpace=wrap;rounded=0;fontFamily=Lucida Console;" parent="1" vertex="1">
          <mxGeometry x="25" y="950" width="60" height="30" as="geometry" />
        </mxCell>
        <mxCell id="duxP4CULR9FMRPUdZlci-40" value="express route standard" style="text;html=1;align=center;verticalAlign=middle;whiteSpace=wrap;rounded=0;fontFamily=Lucida Console;" parent="1" vertex="1">
          <mxGeometry x="114" y="745" width="60" height="30" as="geometry" />
        </mxCell>
        <mxCell id="duxP4CULR9FMRPUdZlci-41" style="rounded=0;orthogonalLoop=1;jettySize=auto;html=1;exitX=0.25;exitY=1;exitDx=0;exitDy=0;endArrow=none;startFill=0;strokeWidth=3;fillColor=#fff2cc;strokeColor=#CC0066;" parent="1" edge="1">
          <mxGeometry relative="1" as="geometry">
            <mxPoint x="331.98" y="762" as="sourcePoint" />
            <mxPoint x="400" y="762" as="targetPoint" />
          </mxGeometry>
        </mxCell>
        <mxCell id="duxP4CULR9FMRPUdZlci-42" style="rounded=0;orthogonalLoop=1;jettySize=auto;html=1;endArrow=none;startFill=0;strokeWidth=3;fillColor=#dae8fc;strokeColor=#6c8ebf;" parent="1" edge="1">
          <mxGeometry relative="1" as="geometry">
            <mxPoint x="330" y="786" as="sourcePoint" />
            <mxPoint x="398" y="786" as="targetPoint" />
          </mxGeometry>
        </mxCell>
        <mxCell id="duxP4CULR9FMRPUdZlci-43" value="vnet-peering" style="text;html=1;align=center;verticalAlign=middle;whiteSpace=wrap;rounded=0;fontFamily=Lucida Console;" parent="1" vertex="1">
          <mxGeometry x="396" y="752" width="130" height="30" as="geometry" />
        </mxCell>
        <mxCell id="duxP4CULR9FMRPUdZlci-44" value="vnet-link to vHub" style="text;html=1;align=center;verticalAlign=middle;whiteSpace=wrap;rounded=0;fontFamily=Lucida Console;" parent="1" vertex="1">
          <mxGeometry x="395.38" y="776" width="162.62" height="30" as="geometry" />
        </mxCell>
        <mxCell id="duxP4CULR9FMRPUdZlci-45" value="" style="image;aspect=fixed;html=1;points=[];align=center;fontSize=12;image=img/lib/azure2/compute/VM_Scale_Sets.svg;" parent="1" vertex="1">
          <mxGeometry x="-10" y="640" width="25" height="25" as="geometry" />
        </mxCell>
        <mxCell id="duxP4CULR9FMRPUdZlci-46" value="" style="image;aspect=fixed;html=1;points=[];align=center;fontSize=12;image=img/lib/azure2/compute/Virtual_Machine.svg;" parent="1" vertex="1">
          <mxGeometry x="-71.56" y="645" width="16.17" height="15" as="geometry" />
        </mxCell>
        <mxCell id="duxP4CULR9FMRPUdZlci-47" value="" style="image;aspect=fixed;html=1;points=[];align=center;fontSize=12;image=img/lib/azure2/compute/Virtual_Machine.svg;" parent="1" vertex="1">
          <mxGeometry x="-50" y="890" width="21.56" height="20" as="geometry" />
        </mxCell>
        <mxCell id="duxP4CULR9FMRPUdZlci-48" value="" style="image;sketch=0;aspect=fixed;html=1;points=[];align=center;fontSize=12;image=img/lib/mscae/Azure_Firewall.svg;" parent="1" vertex="1">
          <mxGeometry x="-50" y="440" width="20" height="20" as="geometry" />
        </mxCell>
        <mxCell id="duxP4CULR9FMRPUdZlci-49" value="&lt;div&gt;Azure&lt;/div&gt;&lt;div&gt;Firewall&lt;/div&gt;" style="text;html=1;align=center;verticalAlign=middle;whiteSpace=wrap;rounded=0;fontFamily=Lucida Console;fontSize=10;" parent="1" vertex="1">
          <mxGeometry x="-30" y="435" width="60" height="30" as="geometry" />
        </mxCell>
        <mxCell id="duxP4CULR9FMRPUdZlci-50" value="" style="image;aspect=fixed;html=1;points=[];align=center;fontSize=12;image=img/lib/azure2/storage/Storage_Accounts.svg;" parent="1" vertex="1">
          <mxGeometry x="125" y="422" width="25" height="20" as="geometry" />
        </mxCell>
        <mxCell id="duxP4CULR9FMRPUdZlci-51" value="&lt;div&gt;private endpoint&lt;/div&gt;" style="text;html=1;align=center;verticalAlign=middle;whiteSpace=wrap;rounded=0;fontFamily=Lucida Console;fontSize=10;" parent="1" vertex="1">
          <mxGeometry x="44.489999999999995" y="465" width="60" height="30" as="geometry" />
        </mxCell>
        <mxCell id="duxP4CULR9FMRPUdZlci-52" value="" style="image;aspect=fixed;html=1;points=[];align=center;fontSize=12;image=img/lib/azure2/other/Private_Endpoints.svg;" parent="1" vertex="1">
          <mxGeometry x="63.97" y="442" width="21.03" height="20" as="geometry" />
        </mxCell>
        <mxCell id="duxP4CULR9FMRPUdZlci-56" style="rounded=0;orthogonalLoop=1;jettySize=auto;html=1;entryX=0.168;entryY=0.391;entryDx=0;entryDy=0;entryPerimeter=0;endArrow=none;startFill=0;" parent="1" source="duxP4CULR9FMRPUdZlci-52" target="duxP4CULR9FMRPUdZlci-53" edge="1">
          <mxGeometry relative="1" as="geometry" />
        </mxCell>
        <mxCell id="duxP4CULR9FMRPUdZlci-53" value="" style="verticalLabelPosition=bottom;html=1;verticalAlign=top;align=center;strokeColor=none;fillColor=#00BEF2;shape=mxgraph.azure.sql_database_sql_azure;" parent="1" vertex="1">
          <mxGeometry x="125.75" y="453" width="28.5" height="30" as="geometry" />
        </mxCell>
        <mxCell id="duxP4CULR9FMRPUdZlci-54" value="&lt;div&gt;paas with&amp;nbsp;&lt;/div&gt;&lt;div&gt;private endpoint&lt;/div&gt;" style="text;html=1;align=center;verticalAlign=middle;whiteSpace=wrap;rounded=0;fontFamily=Lucida Console;fontSize=10;" parent="1" vertex="1">
          <mxGeometry x="154.25" y="430" width="100" height="30" as="geometry" />
        </mxCell>
        <mxCell id="duxP4CULR9FMRPUdZlci-55" style="rounded=0;orthogonalLoop=1;jettySize=auto;html=1;entryX=0.035;entryY=0.41;entryDx=0;entryDy=0;entryPerimeter=0;endArrow=none;startFill=0;" parent="1" source="duxP4CULR9FMRPUdZlci-52" target="duxP4CULR9FMRPUdZlci-50" edge="1">
          <mxGeometry relative="1" as="geometry" />
        </mxCell>
        <mxCell id="duxP4CULR9FMRPUdZlci-57" value="vms, vm scale sets, aks, .." style="text;html=1;align=center;verticalAlign=middle;whiteSpace=wrap;rounded=0;fontFamily=Lucida Console;fontSize=10;" parent="1" vertex="1">
          <mxGeometry x="-100" y="665" width="210" height="30" as="geometry" />
        </mxCell>
        <mxCell id="duxP4CULR9FMRPUdZlci-58" value="" style="image;aspect=fixed;html=1;points=[];align=center;fontSize=12;image=img/lib/azure2/compute/Kubernetes_Services.svg;" parent="1" vertex="1">
          <mxGeometry x="66.52" y="643.69" width="18.48" height="16.31" as="geometry" />
        </mxCell>
        <mxCell id="duxP4CULR9FMRPUdZlci-59" value="" style="strokeWidth=2;html=1;shape=mxgraph.flowchart.database;whiteSpace=wrap;" parent="1" vertex="1">
          <mxGeometry x="53.49" y="884" width="30" height="30" as="geometry" />
        </mxCell>
        <mxCell id="SmQvaODmb2H4A3a63OkO-1" style="edgeStyle=orthogonalEdgeStyle;rounded=0;orthogonalLoop=1;jettySize=auto;html=1;entryX=0.006;entryY=0.66;entryDx=0;entryDy=0;entryPerimeter=0;curved=1;" edge="1" parent="1" source="duxP4CULR9FMRPUdZlci-46" target="duxP4CULR9FMRPUdZlci-2">
          <mxGeometry relative="1" as="geometry">
            <Array as="points">
              <mxPoint x="-50" y="652" />
              <mxPoint x="-50" y="183" />
            </Array>
          </mxGeometry>
        </mxCell>
      </root>
    </mxGraphModel>
  </diagram>
</mxfile>
